<?xml version="1.0" encoding="UTF-8" standalone="no"?>
<!-- Created with Inkscape (http://www.inkscape.org/) -->

<svg
   xmlns:dc="http://purl.org/dc/elements/1.1/"
   xmlns:cc="http://creativecommons.org/ns#"
   xmlns:rdf="http://www.w3.org/1999/02/22-rdf-syntax-ns#"
   xmlns:svg="http://www.w3.org/2000/svg"
   xmlns="http://www.w3.org/2000/svg"
   xmlns:sodipodi="http://sodipodi.sourceforge.net/DTD/sodipodi-0.dtd"
   xmlns:inkscape="http://www.inkscape.org/namespaces/inkscape"
   width="59.999592"
   height="85.026505"
   id="svg4050"
   version="1.1"
   inkscape:version="0.48.2 r9819"
   sodipodi:docname="New document 6">
  <defs
     id="defs4052" />
  <sodipodi:namedview
     id="base"
     pagecolor="#ffffff"
     bordercolor="#666666"
     borderopacity="1.0"
     inkscape:pageopacity="0.0"
     inkscape:pageshadow="2"
     inkscape:zoom="7.2441255"
     inkscape:cx="29.999535"
     inkscape:cy="48.070253"
     inkscape:document-units="px"
     inkscape:current-layer="layer1"
     showgrid="false"
     fit-margin-top="0"
     fit-margin-left="0"
     fit-margin-right="0"
     fit-margin-bottom="0"
     inkscape:window-width="1920"
     inkscape:window-height="1053"
     inkscape:window-x="-9"
     inkscape:window-y="-9"
     inkscape:window-maximized="1" />
  <metadata
     id="metadata4055">
    <rdf:RDF>
      <cc:Work
         rdf:about="">
        <dc:format>image/svg+xml</dc:format>
        <dc:type
           rdf:resource="http://purl.org/dc/dcmitype/StillImage" />
        <dc:title></dc:title>
      </cc:Work>
    </rdf:RDF>
  </metadata>
  <g
     inkscape:label="Layer 1"
     inkscape:groupmode="layer"
     id="layer1"
     transform="translate(-504.4731,-607.16155)">
    <g
       id="g4030"
       transform="matrix(1.006277,0,0,0.99999479,1314.1,169.8765)"
       style="stroke-linecap:square">
      <path
         d="m -745.94501,451.85761 0,0 c 0,3.97903 -12.9027,7.2047 -28.819,7.2047 -15.9162,0 -28.8188,-3.22568 -28.8188,-7.2047 l 0,0 c 0,-3.97906 12.9026,-7.20475 28.8188,-7.20475 15.9163,0 28.819,3.22569 28.819,7.20475 l 0,62.25195 c 0,3.97907 -12.9027,7.20471 -28.819,7.20471 -15.9162,0 -28.8188,-3.22564 -28.8188,-7.20471 l 0,-62.25195"
         id="path83-1"
         inkscape:connector-curvature="0"
         style="fill:#d9d9d9;fill-opacity:1;stroke:#000000;stroke-width:1.99375761;stroke-linecap:square;stroke-linejoin:round;stroke-opacity:1" />
      <path
         d="m -803.58281,451.85761 0,0 c 0,-3.97906 12.9026,-7.20475 28.8188,-7.20475 15.9163,0 28.819,3.22569 28.819,7.20475 l 0,0 c 0,3.97903 -12.9027,7.2047 -28.819,7.2047 -15.9162,0 -28.8188,-3.22568 -28.8188,-7.2047 z"
         id="path79-6"
         inkscape:connector-curvature="0"
         style="fill:#e0e0e0;fill-rule:nonzero;stroke:#000000;stroke-width:1.99375761;stroke-linecap:square;stroke-miterlimit:4;stroke-opacity:1;stroke-dasharray:none" />
      <path
         d="m -745.94501,451.85761 0,0 c 0,3.97903 -12.9027,7.2047 -28.819,7.2047 -15.9162,0 -28.8188,-3.22568 -28.8188,-7.2047 l 0,0 c 0,-3.97906 12.9026,-7.20475 28.8188,-7.20475 15.9163,0 28.819,3.22569 28.819,7.20475 l 0,62.25195 c 0,3.97907 -12.9027,7.20471 -28.819,7.20471 -15.9162,0 -28.8188,-3.22564 -28.8188,-7.20471 l 0,-62.25195"
         id="path81-8"
         inkscape:connector-curvature="0"
         style="fill:#000000;fill-opacity:0;fill-rule:nonzero;stroke:none" />
    </g>
    <path
       style="fill:none;stroke:#000000;stroke-width:12.00000191;stroke-linecap:square;stroke-linejoin:round;stroke-opacity:1"
       inkscape:connector-curvature="0"
       id="path87"
       d="m 533.76054,613.16155 0,3.606" />
  </g>
</svg>
