<?xml version="1.0" encoding="UTF-8" standalone="no"?>
<!-- Created with Inkscape (http://www.inkscape.org/) -->

<svg
   xmlns:dc="http://purl.org/dc/elements/1.1/"
   xmlns:cc="http://creativecommons.org/ns#"
   xmlns:rdf="http://www.w3.org/1999/02/22-rdf-syntax-ns#"
   xmlns:svg="http://www.w3.org/2000/svg"
   xmlns="http://www.w3.org/2000/svg"
   xmlns:sodipodi="http://sodipodi.sourceforge.net/DTD/sodipodi-0.dtd"
   xmlns:inkscape="http://www.inkscape.org/namespaces/inkscape"
   width="234.64641"
   height="259.47302"
   id="svg4524"
   version="1.1"
   inkscape:version="0.48.2 r9819"
   sodipodi:docname="label_stand.svg">
  <defs
     id="defs4526" />
  <sodipodi:namedview
     id="base"
     pagecolor="#ffffff"
     bordercolor="#666666"
     borderopacity="1.0"
     inkscape:pageopacity="0.0"
     inkscape:pageshadow="2"
     inkscape:zoom="2.2716578"
     inkscape:cx="138.70166"
     inkscape:cy="133.55303"
     inkscape:document-units="px"
     inkscape:current-layer="layer1"
     showgrid="false"
     fit-margin-top="0"
     fit-margin-left="0"
     fit-margin-right="0"
     fit-margin-bottom="0"
     inkscape:window-width="1920"
     inkscape:window-height="1053"
     inkscape:window-x="-9"
     inkscape:window-y="-9"
     inkscape:window-maximized="1"
     showguides="true"
     inkscape:guide-bbox="true">
    <sodipodi:guide
       orientation="0,1"
       position="533.0847,-219.64306"
       id="guide3028" />
    <sodipodi:guide
       orientation="1,0"
       position="792.93266,-32.726279"
       id="guide3010" />
    <sodipodi:guide
       orientation="0,1"
       position="167.62569,259.68325"
       id="guide4607" />
  </sodipodi:namedview>
  <metadata
     id="metadata4529">
    <rdf:RDF>
      <cc:Work
         rdf:about="">
        <dc:format>image/svg+xml</dc:format>
        <dc:type
           rdf:resource="http://purl.org/dc/dcmitype/StillImage" />
        <dc:title />
      </cc:Work>
    </rdf:RDF>
  </metadata>
  <g
     inkscape:label="Layer 1"
     inkscape:groupmode="layer"
     id="layer1"
     transform="translate(514.76856,-196.31821)">
    <path
       style="fill:none;stroke:#000000;stroke-width:12;stroke-linecap:square;stroke-linejoin:round;stroke-opacity:1"
       inkscape:connector-curvature="0"
       id="path487-7"
       d="m -336.76856,378.0644 0,71.72683" />
    <path
       style="fill:none;stroke:#000000;stroke-width:2;stroke-linecap:butt;stroke-linejoin:round;stroke-opacity:1"
       inkscape:connector-curvature="0"
       id="path435"
       d="m -465.07354,344.71502 c 0.9174,-2.22964 -0.86502,-5.11905 5.25388,-10.62781 6.119,-5.50874 48.80686,-30.70481 61.33666,-36.55041 l -0.49686,44.63211"
       sodipodi:nodetypes="cscc" />
    <path
       style="fill:#000000;fill-opacity:0;fill-rule:nonzero;stroke:none"
       inkscape:connector-curvature="0"
       id="path451"
       d="m -513.63736,369.20584 0,85.33696 42.3098,0 0,-85.33696" />
    <path
       style="fill:#ffffff;fill-opacity:1;fill-rule:nonzero;stroke:none"
       inkscape:connector-curvature="0"
       id="path475"
       d="m -392.39775,316.71977 0,0 c 0,8.34589 24.9099,15.11157 55.6378,15.11157 30.7279,0 55.6378,-6.76568 55.6378,-15.11157 l 0,63.2572 c 0,8.34589 -24.9099,15.11154 -55.6378,15.11154 -30.7279,0 -55.6378,-6.76565 -55.6378,-15.11154 z" />
    <path
       style="fill:#ffffff;fill-opacity:1;fill-rule:nonzero;stroke:#000000;stroke-opacity:1"
       inkscape:connector-curvature="0"
       id="path477"
       d="m -392.39775,316.71977 0,0 c 0,-8.34587 24.9099,-15.11156 55.6378,-15.11156 30.7279,0 55.6378,6.76569 55.6378,15.11156 l 0,0 c 0,8.34589 -24.9099,15.11157 -55.6378,15.11157 -30.7279,0 -55.6378,-6.76568 -55.6378,-15.11157 z" />
    <path
       style="fill:#000000;fill-opacity:0;fill-rule:nonzero;stroke:none"
       inkscape:connector-curvature="0"
       id="path479"
       d="m -281.12215,316.71977 0,0 c 0,8.34589 -24.9099,15.11157 -55.6378,15.11157 -30.7279,0 -55.6378,-6.76568 -55.6378,-15.11157 l 0,0 c 0,-8.34587 24.9099,-15.11156 55.6378,-15.11156 30.7279,0 55.6378,6.76569 55.6378,15.11156 l 0,63.2572 c 0,8.34589 -24.9099,15.11154 -55.6378,15.11154 -30.7279,0 -55.6378,-6.76565 -55.6378,-15.11154 l 0,-63.2572" />
    <path
       style="fill:none;stroke:#000000;stroke-width:2;stroke-linecap:butt;stroke-linejoin:round;stroke-opacity:1"
       inkscape:connector-curvature="0"
       id="path481"
       d="m -281.12215,316.71977 0,0 c 0,8.34589 -24.9099,15.11157 -55.6378,15.11157 -30.7279,0 -55.6378,-6.76568 -55.6378,-15.11157 l 0,0 c 0,-8.34587 24.9099,-15.11156 55.6378,-15.11156 30.7279,0 55.6378,6.76569 55.6378,15.11156 l 0,63.2572 c 0,8.34589 -24.9099,15.11154 -55.6378,15.11154 -30.7279,0 -55.6378,-6.76565 -55.6378,-15.11154 l 0,-63.2572" />
    <path
       style="fill:#000000;fill-opacity:1;fill-rule:nonzero;stroke:none"
       inkscape:connector-curvature="0"
       id="path483"
       d="m -351.01195,316.33146 0,0 c 0,-3.33981 6.3809,-6.04726 14.252,-6.04726 l 0,0 c 7.871,0 14.2519,2.70745 14.2519,6.04726 l 0,0 c 0,3.3398 -6.3809,6.04724 -14.2519,6.04724 l 0,0 c -7.8711,0 -14.252,-2.70744 -14.252,-6.04724 z" />
    <path
       style="fill:none;stroke:#000000;stroke-width:12;stroke-linecap:square;stroke-linejoin:round;stroke-opacity:1"
       inkscape:connector-curvature="0"
       id="path487"
       d="m -336.76856,202.31821 0,107.68207" />
    <path
       style="fill:#ffd966;fill-rule:nonzero;stroke:none"
       inkscape:connector-curvature="0"
       id="path509"
       d="m -321.81565,337.50338 34.2047,0 0,42.55119 -34.2047,0 z" />
    <path
       style="fill:#f1d326;fill-opacity:1;stroke:none"
       inkscape:connector-curvature="0"
       id="path511"
       d="m -321.81565,337.50338 34.2047,0 0,42.55119 -34.2047,0 z" />
    <path
       style="fill:#d5a6bd;fill-rule:nonzero;stroke:none"
       inkscape:connector-curvature="0"
       id="path513"
       d="m -296.90895,343.41938 c 2.5591,-7.05511 12.5394,0 0,9.07086 -12.5393,-9.07086 -2.559,-16.12598 0,-9.07086 z" />
    <path
       style="fill:#ea9999;fill-rule:nonzero;stroke:none"
       inkscape:connector-curvature="0"
       id="path515"
       d="m -316.44835,363.4012 0,0 c 0,-5.78378 4.2374,-10.47244 9.4645,-10.47244 5.2272,0 9.4646,4.68866 9.4646,10.47244 0,5.78375 -4.2374,10.47244 -9.4646,10.47244 -5.2271,0 -9.4645,-4.68869 -9.4645,-10.47244 z" />
    <path
       style="fill:#bb7a7a;fill-rule:nonzero;stroke:none"
       inkscape:connector-curvature="0"
       id="path517"
       d="m -311.00195,360.26915 c 0,-0.60248 0.4414,-1.09088 0.986,-1.09088 0.5444,0 0.9858,0.4884 0.9858,1.09088 0,0.60248 -0.4414,1.09088 -0.9858,1.09088 -0.5446,0 -0.986,-0.4884 -0.986,-1.09088 m 6.0643,0 c 0,-0.60248 0.4414,-1.09088 0.986,-1.09088 0.5444,0 0.9858,0.4884 0.9858,1.09088 0,0.60248 -0.4414,1.09088 -0.9858,1.09088 -0.5446,0 -0.986,-0.4884 -0.986,-1.09088" />
    <path
       style="fill:#000000;fill-opacity:0;fill-rule:nonzero;stroke:none"
       inkscape:connector-curvature="0"
       id="path519"
       d="m -312.11365,367.96828 q 5.1298,3.89828 10.2477,0" />
    <path
       style="fill:#000000;fill-opacity:0;fill-rule:nonzero;stroke:none"
       inkscape:connector-curvature="0"
       id="path521"
       d="m -316.44835,363.4012 0,0 c 0,-5.78378 4.2374,-10.47244 9.4645,-10.47244 5.2272,0 9.4646,4.68866 9.4646,10.47244 0,5.78375 -4.2374,10.47244 -9.4646,10.47244 -5.2271,0 -9.4645,-4.68869 -9.4645,-10.47244 z" />
    <path
       style="fill:none;stroke:#a64d79;stroke-width:1;stroke-linecap:butt;stroke-linejoin:round"
       inkscape:connector-curvature="0"
       id="path523"
       d="m -311.00195,360.26915 c 0,-0.60248 0.4414,-1.09088 0.986,-1.09088 0.5444,0 0.9858,0.4884 0.9858,1.09088 0,0.60248 -0.4414,1.09088 -0.9858,1.09088 -0.5446,0 -0.986,-0.4884 -0.986,-1.09088 m 6.0643,0 c 0,-0.60248 0.4414,-1.09088 0.986,-1.09088 0.5444,0 0.9858,0.4884 0.9858,1.09088 0,0.60248 -0.4414,1.09088 -0.9858,1.09088 -0.5446,0 -0.986,-0.4884 -0.986,-1.09088" />
    <path
       style="fill:none;stroke:#a64d79;stroke-width:1;stroke-linecap:butt;stroke-linejoin:round"
       inkscape:connector-curvature="0"
       id="path525"
       d="m -312.11365,367.96828 q 5.1298,3.89828 10.2477,0" />
    <path
       style="fill:none;stroke:#a64d79;stroke-width:1;stroke-linecap:butt;stroke-linejoin:round"
       inkscape:connector-curvature="0"
       id="path527"
       d="m -316.44835,363.4012 0,0 c 0,-5.78378 4.2374,-10.47244 9.4645,-10.47244 5.2272,0 9.4646,4.68866 9.4646,10.47244 0,5.78375 -4.2374,10.47244 -9.4646,10.47244 -5.2271,0 -9.4645,-4.68869 -9.4645,-10.47244 z" />
    <path
       style="fill:#ffffff;fill-opacity:1;fill-rule:nonzero;stroke:none"
       inkscape:connector-curvature="0"
       id="path529"
       d="m -339.45485,331.87503 -125.79261,12.61681 0,65.00525 132.57641,-14.53806" />
    <path
       style="fill:none;stroke:#000000;stroke-width:2;stroke-linecap:butt;stroke-linejoin:round;stroke-opacity:1"
       inkscape:connector-curvature="0"
       id="path531"
       d="m -339.45485,331.87503 -125.79261,12.61681 0,65.00525 132.57641,-14.53806" />
    <path
       style="fill:#ffd966;fill-rule:nonzero;stroke:none"
       inkscape:connector-curvature="0"
       id="path533"
       d="m -450.97116,355.21338 34.2047,0 0,42.55118 -34.2047,0 z" />
    <path
       style="fill:#f1d326;fill-opacity:1;stroke:none"
       inkscape:connector-curvature="0"
       id="path535"
       d="m -450.97116,355.21338 34.2047,0 0,42.55118 -34.2047,0 z" />
    <path
       style="fill:#d5a6bd;fill-rule:nonzero;stroke:none"
       inkscape:connector-curvature="0"
       id="path537"
       d="m -426.06426,361.12941 c 2.5591,-7.05511 12.5393,0 0,9.07086 -12.5394,-9.07086 -2.5591,-16.12598 0,-9.07086 z" />
    <path
       style="fill:#ea9999;fill-rule:nonzero;stroke:none"
       inkscape:connector-curvature="0"
       id="path539"
       d="m -445.60386,381.11118 0,0 c 0,-5.78375 4.2374,-10.47244 9.4646,-10.47244 5.2271,0 9.4645,4.68869 9.4645,10.47244 0,5.78378 -4.2374,10.47244 -9.4645,10.47244 -5.2272,0 -9.4646,-4.68866 -9.4646,-10.47244 z" />
    <path
       style="fill:#bb7a7a;fill-rule:nonzero;stroke:none"
       inkscape:connector-curvature="0"
       id="path541"
       d="m -440.15736,377.97918 c 0,-0.60248 0.4414,-1.09088 0.9858,-1.09088 0.5446,0 0.986,0.4884 0.986,1.09088 0,0.60249 -0.4414,1.09089 -0.986,1.09089 -0.5444,0 -0.9858,-0.4884 -0.9858,-1.09089 m 6.0643,0 c 0,-0.60248 0.4414,-1.09088 0.9859,-1.09088 0.5445,0 0.9859,0.4884 0.9859,1.09088 0,0.60249 -0.4414,1.09089 -0.9859,1.09089 -0.5445,0 -0.9859,-0.4884 -0.9859,-1.09089" />
    <path
       style="fill:#000000;fill-opacity:0;fill-rule:nonzero;stroke:none"
       inkscape:connector-curvature="0"
       id="path543"
       d="m -441.26916,385.6783 q 5.1299,3.89826 10.2477,0" />
    <path
       style="fill:#000000;fill-opacity:0;fill-rule:nonzero;stroke:none"
       inkscape:connector-curvature="0"
       id="path545"
       d="m -445.60386,381.11118 0,0 c 0,-5.78375 4.2374,-10.47244 9.4646,-10.47244 5.2271,0 9.4645,4.68869 9.4645,10.47244 0,5.78378 -4.2374,10.47244 -9.4645,10.47244 -5.2272,0 -9.4646,-4.68866 -9.4646,-10.47244 z" />
    <path
       style="fill:none;stroke:#a64d79;stroke-width:1;stroke-linecap:butt;stroke-linejoin:round"
       inkscape:connector-curvature="0"
       id="path547"
       d="m -440.15736,377.97918 c 0,-0.60248 0.4414,-1.09088 0.9858,-1.09088 0.5446,0 0.986,0.4884 0.986,1.09088 0,0.60249 -0.4414,1.09089 -0.986,1.09089 -0.5444,0 -0.9858,-0.4884 -0.9858,-1.09089 m 6.0643,0 c 0,-0.60248 0.4414,-1.09088 0.9859,-1.09088 0.5445,0 0.9859,0.4884 0.9859,1.09088 0,0.60249 -0.4414,1.09089 -0.9859,1.09089 -0.5445,0 -0.9859,-0.4884 -0.9859,-1.09089" />
    <path
       style="fill:none;stroke:#a64d79;stroke-width:1;stroke-linecap:butt;stroke-linejoin:round"
       inkscape:connector-curvature="0"
       id="path549"
       d="m -441.26916,385.6783 q 5.1299,3.89826 10.2477,0" />
    <path
       style="fill:none;stroke:#a64d79;stroke-width:1;stroke-linecap:butt;stroke-linejoin:round"
       inkscape:connector-curvature="0"
       id="path551"
       d="m -445.60386,381.11118 0,0 c 0,-5.78375 4.2374,-10.47244 9.4646,-10.47244 5.2271,0 9.4645,4.68869 9.4645,10.47244 0,5.78378 -4.2374,10.47244 -9.4645,10.47244 -5.2272,0 -9.4646,-4.68866 -9.4646,-10.47244 z" />
    <path
       style="fill:#ffd966;fill-rule:nonzero;stroke:none"
       inkscape:connector-curvature="0"
       id="path553"
       d="m -407.91925,349.31008 34.2047,0 0,42.55118 -34.2047,0 z" />
    <path
       style="fill:#f1d326;fill-opacity:1;stroke:none"
       inkscape:connector-curvature="0"
       id="path555"
       d="m -407.91925,349.31008 34.2047,0 0,42.55118 -34.2047,0 z" />
    <path
       style="fill:#d5a6bd;fill-rule:nonzero;stroke:none"
       inkscape:connector-curvature="0"
       id="path557"
       d="m -383.01255,355.22606 c 2.5591,-7.05511 12.5394,0 0,9.07089 -12.5393,-9.07089 -2.559,-16.12599 0,-9.07089 z" />
    <path
       style="fill:#ea9999;fill-rule:nonzero;stroke:none"
       inkscape:connector-curvature="0"
       id="path559"
       d="m -402.55195,375.20788 0,0 c 0,-5.78377 4.2374,-10.47244 9.4645,-10.47244 5.2272,0 9.4646,4.68867 9.4646,10.47244 0,5.78375 -4.2374,10.47244 -9.4646,10.47244 -5.2271,0 -9.4645,-4.68869 -9.4645,-10.47244 z" />
    <path
       style="fill:#bb7a7a;fill-rule:nonzero;stroke:none"
       inkscape:connector-curvature="0"
       id="path561"
       d="m -397.10555,372.07582 c 0,-0.60248 0.4414,-1.09088 0.986,-1.09088 0.5444,0 0.9858,0.4884 0.9858,1.09088 0,0.60248 -0.4414,1.09088 -0.9858,1.09088 -0.5446,0 -0.986,-0.4884 -0.986,-1.09088 m 6.0643,0 c 0,-0.60248 0.4414,-1.09088 0.986,-1.09088 0.5444,0 0.9858,0.4884 0.9858,1.09088 0,0.60248 -0.4414,1.09088 -0.9858,1.09088 -0.5446,0 -0.986,-0.4884 -0.986,-1.09088" />
    <path
       style="fill:#000000;fill-opacity:0;fill-rule:nonzero;stroke:none"
       inkscape:connector-curvature="0"
       id="path563"
       d="m -398.21725,379.77495 q 5.1298,3.89828 10.2477,0" />
    <path
       style="fill:#000000;fill-opacity:0;fill-rule:nonzero;stroke:none"
       inkscape:connector-curvature="0"
       id="path565"
       d="m -402.55195,375.20788 0,0 c 0,-5.78377 4.2374,-10.47244 9.4645,-10.47244 5.2272,0 9.4646,4.68867 9.4646,10.47244 0,5.78375 -4.2374,10.47244 -9.4646,10.47244 -5.2271,0 -9.4645,-4.68869 -9.4645,-10.47244 z" />
    <path
       style="fill:none;stroke:#a64d79;stroke-width:1;stroke-linecap:butt;stroke-linejoin:round"
       inkscape:connector-curvature="0"
       id="path567"
       d="m -397.10555,372.07582 c 0,-0.60248 0.4414,-1.09088 0.986,-1.09088 0.5444,0 0.9858,0.4884 0.9858,1.09088 0,0.60248 -0.4414,1.09088 -0.9858,1.09088 -0.5446,0 -0.986,-0.4884 -0.986,-1.09088 m 6.0643,0 c 0,-0.60248 0.4414,-1.09088 0.986,-1.09088 0.5444,0 0.9858,0.4884 0.9858,1.09088 0,0.60248 -0.4414,1.09088 -0.9858,1.09088 -0.5446,0 -0.986,-0.4884 -0.986,-1.09088" />
    <path
       style="fill:none;stroke:#a64d79;stroke-width:1;stroke-linecap:butt;stroke-linejoin:round"
       inkscape:connector-curvature="0"
       id="path569"
       d="m -398.21725,379.77495 q 5.1298,3.89828 10.2477,0" />
    <path
       style="fill:none;stroke:#a64d79;stroke-width:1;stroke-linecap:butt;stroke-linejoin:round"
       inkscape:connector-curvature="0"
       id="path571"
       d="m -402.55195,375.20788 0,0 c 0,-5.78377 4.2374,-10.47244 9.4645,-10.47244 5.2272,0 9.4646,4.68867 9.4646,10.47244 0,5.78375 -4.2374,10.47244 -9.4646,10.47244 -5.2271,0 -9.4645,-4.68869 -9.4645,-10.47244 z" />
    <path
       style="fill:#ffd966;fill-rule:nonzero;stroke:none"
       inkscape:connector-curvature="0"
       id="path573"
       d="m -364.86755,343.40672 34.2047,0 0,42.55118 -34.2047,0 z" />
    <path
       style="fill:#f1d326;fill-opacity:1;stroke:none"
       inkscape:connector-curvature="0"
       id="path575"
       d="m -364.86755,343.40672 34.2047,0 0,42.55118 -34.2047,0 z" />
    <path
       style="fill:#d5a6bd;fill-rule:nonzero;stroke:none"
       inkscape:connector-curvature="0"
       id="path577"
       d="m -339.96065,349.32274 c 2.5591,-7.05511 12.5393,0 0,9.07086 -12.5394,-9.07086 -2.5591,-16.12597 0,-9.07086 z" />
    <path
       style="fill:#ea9999;fill-rule:nonzero;stroke:none"
       inkscape:connector-curvature="0"
       id="path579"
       d="m -359.50025,369.30452 0,0 c 0,-5.78375 4.2374,-10.47244 9.4646,-10.47244 5.2271,0 9.4645,4.68869 9.4645,10.47244 0,5.78378 -4.2374,10.47244 -9.4645,10.47244 -5.2272,0 -9.4646,-4.68866 -9.4646,-10.47244 z" />
    <path
       style="fill:#bb7a7a;fill-rule:nonzero;stroke:none"
       inkscape:connector-curvature="0"
       id="path581"
       d="m -354.05365,366.1725 c 0,-0.60248 0.4414,-1.09088 0.9858,-1.09088 0.5446,0 0.986,0.4884 0.986,1.09088 0,0.60248 -0.4414,1.09088 -0.986,1.09088 -0.5444,0 -0.9858,-0.4884 -0.9858,-1.09088 m 6.0643,0 c 0,-0.60248 0.4414,-1.09088 0.9859,-1.09088 0.5445,0 0.9859,0.4884 0.9859,1.09088 0,0.60248 -0.4414,1.09088 -0.9859,1.09088 -0.5445,0 -0.9859,-0.4884 -0.9859,-1.09088" />
    <path
       style="fill:#000000;fill-opacity:0;fill-rule:nonzero;stroke:none"
       inkscape:connector-curvature="0"
       id="path583"
       d="m -355.16545,373.87162 q 5.1299,3.89825 10.2477,0" />
    <path
       style="fill:#000000;fill-opacity:0;fill-rule:nonzero;stroke:none"
       inkscape:connector-curvature="0"
       id="path585"
       d="m -359.50025,369.30452 0,0 c 0,-5.78375 4.2374,-10.47244 9.4646,-10.47244 5.2271,0 9.4645,4.68869 9.4645,10.47244 0,5.78378 -4.2374,10.47244 -9.4645,10.47244 -5.2272,0 -9.4646,-4.68866 -9.4646,-10.47244 z" />
    <path
       style="fill:none;stroke:#a64d79;stroke-width:1;stroke-linecap:butt;stroke-linejoin:round"
       inkscape:connector-curvature="0"
       id="path587"
       d="m -354.05365,366.1725 c 0,-0.60248 0.4414,-1.09088 0.9858,-1.09088 0.5446,0 0.986,0.4884 0.986,1.09088 0,0.60248 -0.4414,1.09088 -0.986,1.09088 -0.5444,0 -0.9858,-0.4884 -0.9858,-1.09088 m 6.0643,0 c 0,-0.60248 0.4414,-1.09088 0.9859,-1.09088 0.5445,0 0.9859,0.4884 0.9859,1.09088 0,0.60248 -0.4414,1.09088 -0.9859,1.09088 -0.5445,0 -0.9859,-0.4884 -0.9859,-1.09088" />
    <path
       style="fill:none;stroke:#a64d79;stroke-width:1;stroke-linecap:butt;stroke-linejoin:round"
       inkscape:connector-curvature="0"
       id="path589"
       d="m -355.16545,373.87162 q 5.1299,3.89825 10.2477,0" />
    <path
       style="fill:none;stroke:#a64d79;stroke-width:1;stroke-linecap:butt;stroke-linejoin:round"
       inkscape:connector-curvature="0"
       id="path591"
       d="m -359.50025,369.30452 0,0 c 0,-5.78375 4.2374,-10.47244 9.4646,-10.47244 5.2271,0 9.4645,4.68869 9.4645,10.47244 0,5.78378 -4.2374,10.47244 -9.4645,10.47244 -5.2272,0 -9.4646,-4.68866 -9.4646,-10.47244 z" />
    <path
       style="fill:#ffd966;fill-rule:nonzero;stroke:none"
       inkscape:connector-curvature="0"
       id="path593"
       d="m -494.02296,361.11674 34.2047,0 0,42.55118 -34.2047,0 z" />
    <path
       style="fill:#f1d326;fill-opacity:1;stroke:none"
       inkscape:connector-curvature="0"
       id="path595"
       d="m -494.02296,361.11674 34.2047,0 0,42.55118 -34.2047,0 z" />
    <path
       style="fill:#d5a6bd;fill-rule:nonzero;stroke:none"
       inkscape:connector-curvature="0"
       id="path597"
       d="m -469.11616,367.03273 c 2.5591,-7.05511 12.5394,0 0,9.07089 -12.5393,-9.07089 -2.559,-16.12599 0,-9.07089 z" />
    <path
       style="fill:#ea9999;fill-rule:nonzero;stroke:none"
       inkscape:connector-curvature="0"
       id="path599"
       d="m -488.65576,387.01454 0,0 c 0,-5.78378 4.2374,-10.47244 9.4646,-10.47244 5.2272,0 9.4646,4.68866 9.4646,10.47244 0,5.78375 -4.2374,10.47244 -9.4646,10.47244 -5.2272,0 -9.4646,-4.68869 -9.4646,-10.47244 z" />
    <path
       style="fill:#bb7a7a;fill-rule:nonzero;stroke:none"
       inkscape:connector-curvature="0"
       id="path601"
       d="m -483.20926,383.88248 c 0,-0.60248 0.4414,-1.09088 0.986,-1.09088 0.5444,0 0.9858,0.4884 0.9858,1.09088 0,0.60249 -0.4414,1.09089 -0.9858,1.09089 -0.5446,0 -0.986,-0.4884 -0.986,-1.09089 m 6.0643,0 c 0,-0.60248 0.4414,-1.09088 0.986,-1.09088 0.5444,0 0.9858,0.4884 0.9858,1.09088 0,0.60249 -0.4414,1.09089 -0.9858,1.09089 -0.5446,0 -0.986,-0.4884 -0.986,-1.09089" />
    <path
       style="fill:#000000;fill-opacity:0;fill-rule:nonzero;stroke:none"
       inkscape:connector-curvature="0"
       id="path603"
       d="m -484.32106,391.58165 q 5.1299,3.89825 10.2478,0" />
    <path
       style="fill:#000000;fill-opacity:0;fill-rule:nonzero;stroke:none"
       inkscape:connector-curvature="0"
       id="path605"
       d="m -488.65576,387.01454 0,0 c 0,-5.78378 4.2374,-10.47244 9.4646,-10.47244 5.2272,0 9.4646,4.68866 9.4646,10.47244 0,5.78375 -4.2374,10.47244 -9.4646,10.47244 -5.2272,0 -9.4646,-4.68869 -9.4646,-10.47244 z" />
    <path
       style="fill:none;stroke:#a64d79;stroke-width:1;stroke-linecap:butt;stroke-linejoin:round"
       inkscape:connector-curvature="0"
       id="path607"
       d="m -483.20926,383.88248 c 0,-0.60248 0.4414,-1.09088 0.986,-1.09088 0.5444,0 0.9858,0.4884 0.9858,1.09088 0,0.60249 -0.4414,1.09089 -0.9858,1.09089 -0.5446,0 -0.986,-0.4884 -0.986,-1.09089 m 6.0643,0 c 0,-0.60248 0.4414,-1.09088 0.986,-1.09088 0.5444,0 0.9858,0.4884 0.9858,1.09088 0,0.60249 -0.4414,1.09089 -0.9858,1.09089 -0.5446,0 -0.986,-0.4884 -0.986,-1.09089" />
    <path
       style="fill:none;stroke:#a64d79;stroke-width:1;stroke-linecap:butt;stroke-linejoin:round"
       inkscape:connector-curvature="0"
       id="path609"
       d="m -484.32106,391.58165 q 5.1299,3.89825 10.2478,0" />
    <path
       style="fill:none;stroke:#a64d79;stroke-width:1;stroke-linecap:butt;stroke-linejoin:round"
       inkscape:connector-curvature="0"
       id="path611"
       d="m -488.65576,387.01454 0,0 c 0,-5.78378 4.2374,-10.47244 9.4646,-10.47244 5.2272,0 9.4646,4.68866 9.4646,10.47244 0,5.78375 -4.2374,10.47244 -9.4646,10.47244 -5.2272,0 -9.4646,-4.68869 -9.4646,-10.47244 z" />
  </g>
</svg>
