<?xml version="1.0" encoding="UTF-8" standalone="no"?>
<!-- Created with Inkscape (http://www.inkscape.org/) -->

<svg
   xmlns:dc="http://purl.org/dc/elements/1.1/"
   xmlns:cc="http://creativecommons.org/ns#"
   xmlns:rdf="http://www.w3.org/1999/02/22-rdf-syntax-ns#"
   xmlns:svg="http://www.w3.org/2000/svg"
   xmlns="http://www.w3.org/2000/svg"
   xmlns:sodipodi="http://sodipodi.sourceforge.net/DTD/sodipodi-0.dtd"
   xmlns:inkscape="http://www.inkscape.org/namespaces/inkscape"
   width="303"
   height="185.42299"
   id="svg4524"
   version="1.1"
   inkscape:version="0.48.2 r9819"
   sodipodi:docname="line_start.svg">
  <defs
     id="defs4526" />
  <sodipodi:namedview
     id="base"
     pagecolor="#ffffff"
     bordercolor="#666666"
     borderopacity="1.0"
     inkscape:pageopacity="0.0"
     inkscape:pageshadow="2"
     inkscape:zoom="1.8933931"
     inkscape:cx="8.5610267"
     inkscape:cy="119.43569"
     inkscape:document-units="px"
     inkscape:current-layer="layer1"
     showgrid="false"
     fit-margin-top="0"
     fit-margin-left="0"
     fit-margin-right="0"
     fit-margin-bottom="0"
     inkscape:window-width="1920"
     inkscape:window-height="1053"
     inkscape:window-x="-9"
     inkscape:window-y="-9"
     inkscape:window-maximized="1"
     showguides="true"
     inkscape:guide-bbox="true">
    <sodipodi:guide
       orientation="0,1"
       position="43.401646,3.3251955e-006"
       id="guide3028" />
    <sodipodi:guide
       orientation="1,0"
       position="303.2496,186.91678"
       id="guide3010" />
  </sodipodi:namedview>
  <metadata
     id="metadata4529">
    <rdf:RDF>
      <cc:Work
         rdf:about="">
        <dc:format>image/svg+xml</dc:format>
        <dc:type
           rdf:resource="http://purl.org/dc/dcmitype/StillImage" />
        <dc:title />
      </cc:Work>
    </rdf:RDF>
  </metadata>
  <g
     inkscape:label="Layer 1"
     inkscape:groupmode="layer"
     id="layer1"
     transform="translate(25.085503,-490.01131)">
    <g
       id="g3771">
      <path
         d="m 24.733716,630.28704 50,0 0,6 -50,0 z"
         id="path155-4"
         inkscape:connector-curvature="0"
         style="fill:#000000;fill-rule:nonzero;stroke:none;fill-opacity:1" />
      <path
         d="m 37.319219,513.49971 0,0 c 0,-6.90355 5.596465,-12.50001 12.500024,-12.50001 l 0,0 c 3.315204,0 6.494612,1.31696 8.838828,3.66117 2.344196,2.34419 3.661148,5.52364 3.661148,8.83884 l 0,0 c 0,6.90355 -5.596416,12.49999 -12.499976,12.49999 l 0,0 c -6.903559,0 -12.500024,-5.59644 -12.500024,-12.49999 z"
         id="path157-0"
         inkscape:connector-curvature="0"
         style="fill:#000000;fill-rule:nonzero;stroke:none;fill-opacity:1" />
      <path
         d="m 45.733716,522.79512 8,0 0,113.50701 -8,0 z"
         id="path159-9"
         inkscape:connector-curvature="0"
         style="fill:#000000;fill-rule:nonzero;stroke:none;fill-opacity:1" />
    </g>
    <path
       style="fill:#f1d326;fill-rule:nonzero;stroke:none;fill-opacity:1"
       inkscape:connector-curvature="0"
       id="path143"
       d="M -21.175252,546.03014 0.03373109,490.0884 71.086608,518.97157 53.446198,560.35475 z"
       sodipodi:nodetypes="ccccc" />
    <path
       style="fill:#f1d326;fill-opacity:1;fill-rule:nonzero;stroke:none"
       inkscape:connector-curvature="0"
       id="path147"
       d="m 0,490.01131 278.30504,0 0,42.61422 -278.30504,0 z" />
    <path
       style="fill:#f3bf13;fill-rule:nonzero;stroke:none;fill-opacity:1"
       inkscape:connector-curvature="0"
       id="path145"
       d="m 0,530.13187 278.30504,0 0,45 -278.30504,0 z" />
    <path
       style="fill:#f3bf13;fill-rule:nonzero;stroke:none;fill-opacity:1"
       inkscape:connector-curvature="0"
       id="path149"
       d="m -22.5,552.63188 0,0 c 0,-12.4264 10.0736,-22.50001 22.5000198,-22.50001 l 0,0 c 5.96735,0 11.6903202,2.37056 15.9098702,6.59011 4.21959,4.21957 6.59011,9.94251 6.59011,15.9099 l 0,0 c 0,12.42638 -10.0736,22.49999 -22.4999902,22.49999 l 0,0 C -12.4264,575.13186 -22.5,565.05826 -22.5,552.63188 z" />
    <g
       id="g3776">
      <path
         d="m -25.085503,669.4343 50,0 0,6 -50,0 z"
         id="path155"
         inkscape:connector-curvature="0"
         style="fill:#000000;fill-rule:nonzero;stroke:none;fill-opacity:1" />
      <path
         d="m -12.5,552.63188 0,0 c 0,-6.90355 5.596465,-12.50001 12.500024,-12.50001 l 0,0 c 3.315204,0 6.494612,1.31696 8.838828,3.66117 2.344196,2.34419 3.661148,5.52364 3.661148,8.83884 l 0,0 c 0,6.90355 -5.596416,12.49999 -12.499976,12.49999 l 0,0 C -6.903535,565.13187 -12.5,559.53543 -12.5,552.63188 z"
         id="path157"
         inkscape:connector-curvature="0"
         style="fill:#000000;fill-rule:nonzero;stroke:none;fill-opacity:1" />
      <path
         d="m -4.085503,561.92729 8,0 0,113.50701 -8,0 z"
         id="path159"
         inkscape:connector-curvature="0"
         style="fill:#000000;fill-rule:nonzero;stroke:none;fill-opacity:1" />
    </g>
  </g>
</svg>
