<?xml version="1.0" encoding="UTF-8" standalone="no"?>
<!-- Created with Inkscape (http://www.inkscape.org/) -->

<svg
   xmlns:dc="http://purl.org/dc/elements/1.1/"
   xmlns:cc="http://creativecommons.org/ns#"
   xmlns:rdf="http://www.w3.org/1999/02/22-rdf-syntax-ns#"
   xmlns:svg="http://www.w3.org/2000/svg"
   xmlns="http://www.w3.org/2000/svg"
   xmlns:sodipodi="http://sodipodi.sourceforge.net/DTD/sodipodi-0.dtd"
   xmlns:inkscape="http://www.inkscape.org/namespaces/inkscape"
   width="75.497589"
   height="247.97607"
   id="svg4782"
   version="1.1"
   inkscape:version="0.48.2 r9819"
   sodipodi:docname="loading_bottle_plastic.svg">
  <defs
     id="defs4784">
    <inkscape:path-effect
       effect="spiro"
       id="path-effect3942"
       is_visible="true" />
    <inkscape:path-effect
       effect="spiro"
       id="path-effect3977"
       is_visible="true" />
    <inkscape:path-effect
       effect="spiro"
       id="path-effect3977-2"
       is_visible="true" />
  </defs>
  <sodipodi:namedview
     id="base"
     pagecolor="#ffffff"
     bordercolor="#666666"
     borderopacity="1.0"
     inkscape:pageopacity="0.0"
     inkscape:pageshadow="2"
     inkscape:zoom="3.1685884"
     inkscape:cx="-0.84949524"
     inkscape:cy="140.08006"
     inkscape:document-units="px"
     inkscape:current-layer="layer1"
     showgrid="false"
     fit-margin-top="0"
     fit-margin-left="0"
     fit-margin-right="0"
     fit-margin-bottom="0"
     inkscape:window-width="1920"
     inkscape:window-height="1053"
     inkscape:window-x="-9"
     inkscape:window-y="-9"
     inkscape:window-maximized="1" />
  <metadata
     id="metadata4787">
    <rdf:RDF>
      <cc:Work
         rdf:about="">
        <dc:format>image/svg+xml</dc:format>
        <dc:type
           rdf:resource="http://purl.org/dc/dcmitype/StillImage" />
        <dc:title />
      </cc:Work>
    </rdf:RDF>
  </metadata>
  <g
     inkscape:label="Layer 1"
     inkscape:groupmode="layer"
     id="layer1"
     transform="translate(-1070.1169,78.754417)">
    <path
       style="fill:#ffffff;fill-opacity:1;stroke:#d9d9d9;stroke-width:2;stroke-linecap:butt;stroke-linejoin:miter;stroke-miterlimit:4;stroke-opacity:1;stroke-dasharray:none"
       d="m 1122.0071,-38.928319 c 1.1708,3.137649 2.5318,6.204333 4.0729,9.177628 5.7762,11.143833 14.1823,21.2448778 16.7641,33.5283384 0.8116,3.8613939 1.0139,7.8219206 1.1765,11.7643356 0.7114,17.244575 0.7114,34.518485 0,51.76306 -3.698,15.55784 -4.5001,31.799042 -2.3529,47.645537 1.128,8.32502 3.0652,16.59903 2.9411,24.9992 -0.065,4.38146 -0.7032,8.78573 -2.2546,12.88384 -1.5514,4.09811 -4.0466,7.88599 -7.451,10.64482 -3.7888,3.07028 -8.6597,4.77691 -13.5362,4.74271 l -27.0102,-0.037 c -4.8704,0.0494 -9.7406,-1.64453 -13.529,-4.70575 -3.4088,-2.75443 -5.9056,-6.54308 -7.4563,-10.64212 -1.5506,-4.09905 -2.1862,-8.50445 -2.2492,-12.88653 -0.1209,-8.40015 1.8143,-16.67408 2.941,-24.99921 2.1447,-15.846672 1.3427,-32.08725 -2.3528,-47.645528 -0.7446,-17.243642 -0.7446,-34.519418 0,-51.76306 0.1702,-3.941736 0.3815,-7.8998297 1.1764,-11.7643361 2.5302,-12.3009402 10.6584,-22.5541129 16.7642,-33.5283379 1.6379,-2.9439 3.144,-5.973313 4.25,-9.155478 1.9066,-5.485671 2.5915,-11.392197 1.9908,-17.168596 l 24.3312,-0.130559 1.784,17.277076 0,-4e-5"
       id="path3940"
       inkscape:path-effect="#path-effect3942"
       inkscape:original-d="m 1122.0071,-38.928319 c -5.6,0.780811 2.8964,8.295301 4.0729,9.177628 1.1764,0.882328 15.2936,25.293312 16.7641,33.5283384 1.4706,8.2350406 -2.6526,11.9723586 1.1765,11.7643356 17.8736,-0.971016 0,51.76306 0,51.76306 0,0 -0.5882,36.763527 -2.3529,47.645537 -1.7646,10.882 8.4187,51.62419 2.9411,24.9992 -5.1738,-25.14847 3.5293,15.88183 -9.7056,23.52866 -13.2349,7.6468 -13.5362,4.74271 -13.5362,4.74271 l -27.0102,-0.037 c 0,0 -0.2941,2.94106 -13.529,-4.70575 -13.2348,-7.64682 -4.5317,-48.67712 -9.7055,-23.52865 -5.4776,26.62499 4.7057,-14.1172 2.941,-24.99921 -1.7646,-10.882 -2.3528,-47.645528 -2.3528,-47.645528 0,0 -17.8736,-52.734077 0,-51.76306 3.829,0.208022 -0.2941,-3.529295 1.1764,-11.7643361 1.4706,-8.2350264 15.5878,-32.6460109 16.7642,-33.5283379 1.1764,-0.882328 4.25,-7.684932 4.25,-9.155478 0,-1.470531 1.9908,-17.168596 1.9908,-17.168596 9.5816,-2.709659 20.0293,-0.07851 24.3312,-0.130559 1.4292,8.59759 7.3841,16.496279 1.784,17.277076 z"
       inkscape:connector-curvature="0"
       sodipodi:nodetypes="zssscsssccssscssszccz" />
    <rect
       style="fill:#ffffff;fill-opacity:1;stroke:#d9d9d9;stroke-width:2;stroke-linecap:square;stroke-linejoin:miter;stroke-miterlimit:4;stroke-opacity:1;stroke-dasharray:5.99999993, 1.99999998;stroke-dashoffset:0"
       id="rect3971"
       width="32.776619"
       height="3.7631838"
       x="1091.4773"
       y="-59.207932" />
    <rect
       style="fill:#d9d9d9;fill-opacity:1;stroke:none"
       id="rect3973"
       width="30.733599"
       height="18.893604"
       x="1092.4989"
       y="-78.754417" />
    <path
       style="fill:none;stroke:#d9d9d9;stroke-width:2;stroke-linecap:butt;stroke-linejoin:miter;stroke-miterlimit:4;stroke-opacity:1;stroke-dasharray:none"
       d="m 1071.8833,16.484313 71.9647,-0.712514"
       id="path3975"
       inkscape:path-effect="#path-effect3977"
       inkscape:original-d="m 1071.8833,16.484313 71.9647,-0.712514"
       inkscape:connector-curvature="0" />
    <path
       style="fill:none;stroke:#d9d9d9;stroke-width:2;stroke-linecap:butt;stroke-linejoin:miter;stroke-miterlimit:4;stroke-opacity:1;stroke-dasharray:none"
       d="m 1071.8833,67.439592 71.9647,-0.712514"
       id="path3975-2"
       inkscape:path-effect="#path-effect3977-2"
       inkscape:original-d="m 1071.8833,67.439592 71.9647,-0.712514"
       inkscape:connector-curvature="0" />
  </g>
</svg>
