<?xml version="1.0" encoding="UTF-8" standalone="no"?>
<!-- Created with Inkscape (http://www.inkscape.org/) -->

<svg
   xmlns:dc="http://purl.org/dc/elements/1.1/"
   xmlns:cc="http://creativecommons.org/ns#"
   xmlns:rdf="http://www.w3.org/1999/02/22-rdf-syntax-ns#"
   xmlns:svg="http://www.w3.org/2000/svg"
   xmlns="http://www.w3.org/2000/svg"
   xmlns:sodipodi="http://sodipodi.sourceforge.net/DTD/sodipodi-0.dtd"
   xmlns:inkscape="http://www.inkscape.org/namespaces/inkscape"
   width="247.77821"
   height="167.56728"
   id="svg4524"
   version="1.1"
   inkscape:version="0.48.2 r9819"
   sodipodi:docname="packaging_none.svg">
  <defs
     id="defs4526">
    <linearGradient
       id="linearGradient3951">
      <stop
         style="stop-color:#a07b39;stop-opacity:1;"
         offset="0"
         id="stop3953" />
      <stop
         style="stop-color:#c7a465;stop-opacity:1;"
         offset="1"
         id="stop3955" />
    </linearGradient>
    <inkscape:path-effect
       effect="spiro"
       id="path-effect3041"
       is_visible="true" />
    <linearGradient
       id="linearGradient4084">
      <stop
         style="stop-color:#a07b39;stop-opacity:1;"
         offset="0"
         id="stop4086" />
      <stop
         style="stop-color:#c7a465;stop-opacity:1;"
         offset="1"
         id="stop4088" />
    </linearGradient>
    <inkscape:path-effect
       effect="spiro"
       id="path-effect3965"
       is_visible="true" />
    <linearGradient
       id="linearGradient3967">
      <stop
         style="stop-color:#6a551b;stop-opacity:1;"
         offset="0"
         id="stop3969" />
      <stop
         style="stop-color:#593d26;stop-opacity:1;"
         offset="1"
         id="stop3971" />
    </linearGradient>
    <inkscape:path-effect
       effect="spiro"
       id="path-effect3985"
       is_visible="true" />
  </defs>
  <sodipodi:namedview
     id="base"
     pagecolor="#ffffff"
     bordercolor="#666666"
     borderopacity="1.0"
     inkscape:pageopacity="0.0"
     inkscape:pageshadow="2"
     inkscape:zoom="2.5310541"
     inkscape:cx="-4.713439"
     inkscape:cy="95.352355"
     inkscape:document-units="px"
     inkscape:current-layer="layer1"
     showgrid="false"
     fit-margin-top="0"
     fit-margin-left="0"
     fit-margin-right="0"
     fit-margin-bottom="0"
     inkscape:window-width="1920"
     inkscape:window-height="1053"
     inkscape:window-x="-9"
     inkscape:window-y="-9"
     inkscape:window-maximized="1"
     showguides="true"
     inkscape:guide-bbox="true">
    <sodipodi:guide
       orientation="0,1"
       position="93.361286,2.0000045"
       id="guide3028" />
    <sodipodi:guide
       orientation="1,0"
       position="416.63435,190.31365"
       id="guide3010" />
  </sodipodi:namedview>
  <metadata
     id="metadata4529">
    <rdf:RDF>
      <cc:Work
         rdf:about="">
        <dc:format>image/svg+xml</dc:format>
        <dc:type
           rdf:resource="http://purl.org/dc/dcmitype/StillImage" />
        <dc:title />
      </cc:Work>
    </rdf:RDF>
  </metadata>
  <g
     inkscape:label="Layer 1"
     inkscape:groupmode="layer"
     id="layer1"
     transform="translate(138.47025,-511.2639)">
    <g
       transform="translate(272.03656,-225.41314)"
       id="g4027">
      <path
         sodipodi:nodetypes="cccc"
         inkscape:connector-curvature="0"
         id="path3999"
         d="m -368.218,760.07291 -40.28881,33.91315 44.22963,-14.53481 z"
         style="fill:#ffffff;fill-opacity:1;stroke:#d9d9d9;stroke-width:3.99999976;stroke-linecap:butt;stroke-linejoin:miter;stroke-miterlimit:4;stroke-opacity:1;stroke-dasharray:none" />
      <path
         inkscape:connector-curvature="0"
         inkscape:original-d="m -367.47979,759.8648 0.34453,118.86146 99.56941,23.51805 1.37815,-117.90803 z"
         inkscape:path-effect="#path-effect3041"
         id="path3039"
         d="m -367.47979,759.8648 0.34453,118.86146 99.56941,23.51805 1.37815,-117.90803 -101.29209,-24.47148"
         style="fill:#ffffff;fill-opacity:1;stroke:#d9d9d9;stroke-width:3.99999976;stroke-linecap:butt;stroke-linejoin:miter;stroke-miterlimit:4;stroke-opacity:1;stroke-dasharray:none" />
      <path
         sodipodi:nodetypes="ccccc"
         inkscape:connector-curvature="0"
         inkscape:original-d="m -265.89396,784.52204 74.0109,-23.64437 -0.72836,116.2341 -74.29277,25.13254 z"
         inkscape:path-effect="#path-effect3965"
         id="path3963"
         d="m -265.89396,784.52204 74.0109,-23.64437 -0.72836,116.2341 -74.29277,25.13254 1.01023,-117.72227"
         style="fill:#ffffff;fill-opacity:1;stroke:#d9d9d9;stroke-width:3.99999976;stroke-linecap:butt;stroke-linejoin:miter;stroke-miterlimit:4;stroke-opacity:1;stroke-dasharray:none" />
      <path
         sodipodi:nodetypes="ccccc"
         inkscape:connector-curvature="0"
         inkscape:original-d="m -368.87009,759.13604 74.1489,-20.459 105.17842,21.36964 -75.50145,22.58544 z"
         inkscape:path-effect="#path-effect3985"
         id="path3983"
         d="m -368.87009,759.13604 74.1489,-20.459 105.17842,21.36964 -75.50145,22.58544 -103.82587,-23.49608"
         style="fill:#ffffff;fill-opacity:1;stroke:#d9d9d9;stroke-width:3.99999976;stroke-linecap:butt;stroke-linejoin:miter;stroke-miterlimit:4;stroke-opacity:1;stroke-dasharray:none" />
      <path
         sodipodi:nodetypes="ccccc"
         inkscape:connector-curvature="0"
         id="path4001"
         d="m -265.73297,783.84975 75.7703,-23.33338 25.23408,42.26348 -69.07655,28.72932 z"
         style="fill:#ffffff;fill-opacity:1;stroke:#d9d9d9;stroke-width:3.99999976;stroke-linecap:butt;stroke-linejoin:miter;stroke-miterlimit:4;stroke-opacity:1;stroke-dasharray:none" />
    </g>
    <g
       style="font-size:32px;font-style:normal;font-variant:normal;font-weight:normal;font-stretch:normal;line-height:112.00000048%;letter-spacing:0px;word-spacing:0px;fill:#d9d9d9;fill-opacity:1;stroke:none;font-family:Comic Sans MS;-inkscape-font-specification:Comic Sans MS"
       id="text3808"
       transform="matrix(0.60977028,0.22193823,-0.22193823,0.60977028,97.416595,219.58926)">
      <path
         d="m -3.9526901,612.25958 c -0.8958466,0 -1.4010544,-0.48958 -1.515625,-1.46875 l -0.4375,-3.42187 c -0.1458454,-1.21875 -0.218762,-2.35937 -0.21875,-3.42188 -1.2e-5,-0.29166 0.018217,-0.78645 0.054687,-1.48437 0.036446,-0.69791 0.054675,-1.1927 0.054687,-1.48438 -1.21e-5,-2.24999 -0.4166784,-3.37498 -1.25,-3.375 -1.1666764,2e-5 -2.2812586,0.69272 -3.3437499,2.07813 -0.95834,1.26042 -1.708339,2.85417 -2.25,4.78125 -0.02084,0.40625 -0.06771,0.91667 -0.140625,1.53125 -0.0625,0.52084 -0.09375,1.02604 -0.09375,1.51562 -5e-6,0.31251 0.03125,0.78126 0.09375,1.40625 0.0625,0.625 0.09375,1.09375 0.09375,1.40625 -5e-6,0.46875 -0.143234,0.84896 -0.429688,1.14063 -0.286462,0.29166 -0.65365,0.4375 -1.101562,0.4375 -0.458337,0 -0.828128,-0.14584 -1.109375,-0.4375 -0.281252,-0.29167 -0.421877,-0.67188 -0.421875,-1.14063 -2e-6,-0.3125 -0.03386,-0.78125 -0.101563,-1.40625 -0.06771,-0.62499 -0.101564,-1.09374 -0.101562,-1.40625 -2e-6,-1.07291 0.07552,-2.55989 0.226562,-4.46093 0.15104,-1.90104 0.22656,-3.38801 0.226563,-4.46094 -3e-6,-0.33332 -0.01823,-0.82811 -0.05469,-1.48438 -0.03646,-0.65623 -0.05469,-1.15102 -0.05469,-1.48437 -2e-6,-0.4479 0.148435,-0.81509 0.445312,-1.10156 0.296872,-0.28645 0.664059,-0.42968 1.101563,-0.42969 0.958328,10e-6 1.48437,0.6771 1.578125,2.03125 l 0.04687,1.82812 c 1.749993,-2.33332 3.5468659,-3.49998 5.3906249,-3.5 1.6666541,2e-5 2.8281113,0.73439 3.484375,2.20313 0.4479019,0.97918 0.6926933,2.42709 0.734375,4.34375 l 0,1.57812 -0.015625,1.45313 c -1.51e-5,0.86459 0.111964,1.98177 0.3359375,3.35156 0.2239427,1.36979 0.3359218,2.48177 0.3359375,3.33594 -1.57e-5,0.45833 -0.1484531,0.83073 -0.4453125,1.11719 -0.29689,0.28645 -0.6692855,0.42968 -1.1171875,0.42968 z"
         style="text-align:center;line-height:112.00000048%;text-anchor:middle"
         id="path3811"
         inkscape:connector-curvature="0" />
      <path
         d="m 6.6723099,612.07208 c -1.7500063,0 -3.2552131,-0.64583 -4.515625,-1.9375 -1.40625213,-1.4375 -2.14583473,-3.36978 -2.21875002,-5.79687 -0.06250124,-2.35416 0.53124817,-4.42707 1.78125002,-6.21875 1.4583288,-2.11457 3.4895767,-3.17186 6.09375,-3.17188 2.0833221,2e-5 3.6614451,0.95314 4.7343751,2.85938 0.854152,1.54168 1.26561,3.39584 1.234375,5.5625 -0.03126,2.3125 -0.635431,4.28646 -1.8125,5.92187 -1.333345,1.85417 -3.0989687,2.78125 -5.2968751,2.78125 z m 0.9375,-13.95312 c -1.5312575,-0.0104 -2.7239646,0.71876 -3.578125,2.1875 -0.6770881,1.17709 -1.0156294,2.52084 -1.015625,4.03125 -4.4e-6,1.51042 0.4114535,2.6875 1.234375,3.53125 0.6874937,0.69792 1.4947845,1.04687 2.421875,1.04687 1.0833242,0 2.0156149,-0.39583 2.796875,-1.1875 0.8854051,-0.87499 1.3541541,-2.05728 1.4062501,-3.54687 0.145821,-4.03124 -0.9427197,-6.05207 -3.2656251,-6.0625 z"
         style="text-align:center;line-height:112.00000048%;text-anchor:middle"
         id="path3813"
         inkscape:connector-curvature="0" />
      <path
         d="m -64.20269,647.53708 c -1.041675,0 -2.187507,-0.16666 -3.4375,-0.5 l -0.03125,7.46875 c -5e-6,0.45833 -0.143234,0.83333 -0.429688,1.125 -0.286463,0.29166 -0.65365,0.43749 -1.101562,0.4375 -0.44792,-10e-6 -0.815107,-0.14584 -1.101563,-0.4375 -0.28646,-0.29167 -0.429689,-0.66667 -0.429687,-1.125 l 0.04687,-6.25 0,-6.23437 c -0.03125,-2.28125 -0.109377,-4.35937 -0.234375,-6.23438 l -0.234375,-3.17187 c -2e-6,-0.73957 0.135415,-1.36457 0.40625,-1.875 0.312497,-0.61457 0.765622,-0.92186 1.359375,-0.92188 0.406246,2e-5 0.747391,0.14325 1.023437,0.42969 0.276037,0.28647 0.414058,0.63804 0.414063,1.05469 -5e-6,0.0938 -0.01563,0.26564 -0.04687,0.51562 -0.05209,0.32293 -0.08855,0.61981 -0.109375,0.89063 0.895827,-0.61457 1.76041,-1.07551 2.59375,-1.38281 0.833325,-0.30728 1.630199,-0.46093 2.390625,-0.46094 2.135405,10e-6 3.697903,0.94793 4.6875,2.84375 0.781235,1.50001 1.171859,3.48438 1.171875,5.95312 -1.6e-5,2.25001 -0.604182,4.10417 -1.8125,5.5625 -1.281263,1.54167 -2.989594,2.3125 -5.125,2.3125 z m 1.078125,-13.54687 c -0.958342,10e-6 -1.822925,0.21355 -2.59375,0.64062 -0.55209,0.3021 -1.250006,0.85418 -2.09375,1.65625 0.135411,2.36459 0.203119,4.84897 0.203125,7.45313 1.13541,0.4375 2.270826,0.65625 3.40625,0.65625 1.302073,0 2.296864,-0.48437 2.984375,-1.45313 0.593737,-0.84374 0.890612,-1.93749 0.890625,-3.28125 -1.3e-5,-1.89582 -0.231783,-3.31509 -0.695313,-4.25781 -0.463553,-0.9427 -1.164073,-1.41405 -2.101562,-1.41406 z"
         style="text-align:center;line-height:112.00000048%;text-anchor:middle"
         id="path3815"
         inkscape:connector-curvature="0" />
      <path
         d="m -41.51519,648.02146 c -0.197931,0 -0.557306,-0.22917 -1.078125,-0.6875 -0.468763,-0.42709 -0.817721,-0.80729 -1.046875,-1.14063 -1.000011,0.54167 -1.880219,0.95052 -2.640625,1.22657 -0.760426,0.27604 -1.395842,0.41406 -1.90625,0.41406 -2.437505,0 -4.213545,-0.6875 -5.328125,-2.0625 -1.052085,-1.29167 -1.578126,-3.27083 -1.578125,-5.9375 -1e-6,-2.52083 0.867186,-4.67707 2.601562,-6.46875 1.73437,-1.79165 3.804681,-2.68749 6.210938,-2.6875 0.906239,10e-6 1.921863,0.23439 3.046875,0.70312 1.416652,0.58335 2.124985,1.28648 2.125,2.10938 -1.5e-5,0.28126 -0.104181,0.53126 -0.3125,0.75 -0.104181,0.39584 -0.18491,1.04688 -0.242188,1.95312 -0.0573,0.90626 -0.09116,2.06772 -0.101562,3.48438 -0.01043,1.29167 0.07811,2.3125 0.265625,3.0625 0.104152,0.45833 0.432277,1.375 0.984375,2.75 0.0729,0.1875 0.192693,0.46354 0.359375,0.82812 l 0.09375,0.26563 c -1.6e-5,0.41666 -0.145849,0.76041 -0.4375,1.03125 -0.291682,0.27083 -0.630223,0.40625 -1.015625,0.40625 z m -3.25,-10.85938 c -1.1e-5,-0.4479 0.02863,-0.93488 0.08594,-1.46093 0.05728,-0.52603 0.143218,-1.08593 0.257813,-1.67969 -0.385428,-0.19791 -0.716157,-0.34374 -0.992188,-0.4375 -0.276051,-0.0937 -0.497405,-0.14061 -0.664062,-0.14063 -1.614592,2e-5 -3.007819,0.65887 -4.179688,1.97657 -1.171879,1.31771 -1.757816,2.83594 -1.757812,4.55468 -4e-6,1.70834 0.302079,2.98959 0.90625,3.84375 0.604161,0.85417 1.51041,1.28125 2.71875,1.28125 0.999991,0 1.848949,-0.18229 2.546875,-0.54687 0.374989,-0.19792 0.901031,-0.59375 1.578125,-1.1875 -0.333345,-2.76041 -0.500011,-4.82812 -0.5,-6.20313 z"
         style="text-align:center;line-height:112.00000048%;text-anchor:middle"
         id="path3817"
         inkscape:connector-curvature="0" />
      <path
         d="m -30.280815,647.97458 c -2.135424,0 -3.916672,-0.64583 -5.34375,-1.9375 -1.500003,-1.35416 -2.250002,-3.14062 -2.25,-5.35937 -2e-6,-2.11458 0.703123,-4.29687 2.109375,-6.54688 1.562495,-2.49998 3.322909,-3.74998 5.28125,-3.75 1.020823,2e-5 2.161447,0.2396 3.421875,0.71875 1.593736,0.6146 2.39061,1.3646 2.390625,2.25 -1.5e-5,0.39585 -0.130223,0.74741 -0.390625,1.05469 -0.260431,0.3073 -0.583347,0.46095 -0.96875,0.46094 -0.302097,10e-6 -0.565117,-0.0911 -0.789063,-0.27344 -0.22397,-0.18228 -0.440116,-0.36197 -0.648437,-0.53906 -0.614595,-0.48957 -1.619802,-0.73436 -3.015625,-0.73438 -1.062508,2e-5 -2.11459,0.94793 -3.15625,2.84375 -0.947922,1.7396 -1.42188,3.2448 -1.421875,4.51563 -5e-6,1.375 0.468745,2.45833 1.40625,3.25 0.874993,0.73958 1.999992,1.10937 3.375,1.10937 0.62499,0 1.291656,-0.16666 2,-0.5 l 1.8125,-0.96875 c 0.312487,-0.16666 0.536445,-0.24999 0.671875,-0.25 0.385402,1e-5 0.718735,0.15365 1,0.46094 0.281235,0.30729 0.42186,0.65886 0.421875,1.05469 -1.5e-5,0.76042 -0.802098,1.49479 -2.40625,2.20312 -1.406261,0.625 -2.572927,0.9375 -3.5,0.9375 z"
         style="text-align:center;line-height:112.00000048%;text-anchor:middle"
         id="path3819"
         inkscape:connector-curvature="0" />
      <path
         d="m -7.8901901,647.63083 c -0.5729313,0 -1.0156392,-0.30208 -1.328125,-0.90625 -0.54168,-1.05208 -1.3593879,-2.29687 -2.4531249,-3.73437 l -2.765625,-3.76563 c -0.604175,0.47918 -1.541674,1.15105 -2.8125,2.01563 -0.114589,1.61459 -0.171881,3.1875 -0.171875,4.71875 -6e-6,0.46875 -0.143235,0.84896 -0.429688,1.14062 -0.286463,0.29167 -0.65365,0.4375 -1.101562,0.4375 -1.052087,0 -1.578128,-0.70833 -1.578125,-2.125 -3e-6,-0.86458 0.05989,-2.15885 0.179687,-3.88281 0.119789,-1.72395 0.179685,-3.01822 0.179688,-3.88281 -3e-6,-1.58332 0.02343,-3.39322 0.07031,-5.42969 0.04687,-2.03644 0.07031,-3.83592 0.07031,-5.39844 -3e-6,-0.46873 -0.02344,-1.02081 -0.07031,-1.65625 -0.04688,-0.63539 -0.07032,-1.18747 -0.07031,-1.65625 -3e-6,-0.46872 0.143226,-0.84893 0.429687,-1.14062 0.286455,-0.29164 0.653642,-0.43748 1.101563,-0.4375 0.447912,2e-5 0.815099,0.14586 1.101562,0.4375 0.286453,0.29169 0.429682,0.6719 0.429688,1.14062 -6e-6,0.47919 0.02604,1.0443 0.07813,1.69532 0.05208,0.65106 0.07812,1.21616 0.07813,1.69531 l -0.109375,5.03125 c -0.05209,1.81251 -0.06771,3.62501 -0.04687,5.4375 1.416659,-1.08332 2.781241,-2.27082 4.09375,-3.5625 l 3.4374999,-3.54688 c 0.3437361,-0.35415 0.7135274,-0.53123 1.109375,-0.53125 0.406235,2e-5 0.7734221,0.16148 1.1015625,0.48438 0.3281089,0.32293 0.4921713,0.69793 0.4921875,1.125 -1.62e-5,0.35418 -0.1510577,0.70314 -0.453125,1.04687 -1.2812645,1.50002 -2.8593879,3.10939 -4.7343749,4.82813 l 3.4062499,4.64062 c 1.593734,2.17709 2.3906082,3.59375 2.390625,4.25 -1.68e-5,0.41667 -0.1640792,0.77604 -0.4921875,1.07813 -0.328141,0.30208 -0.7057448,0.45312 -1.1328125,0.45312 z"
         style="text-align:center;line-height:112.00000048%;text-anchor:middle"
         id="path3821"
         inkscape:connector-curvature="0" />
      <path
         d="m 8.6098099,648.02146 c -0.1979309,0 -0.5573055,-0.22917 -1.078125,-0.6875 -0.4687629,-0.42709 -0.8177208,-0.80729 -1.046875,-1.14063 -1.0000113,0.54167 -1.8802187,0.95052 -2.640625,1.22657 -0.7604255,0.27604 -1.3958416,0.41406 -1.90625,0.41406 -2.43750529,0 -4.2135452,-0.6875 -5.328125,-2.0625 -1.0520847,-1.29167 -1.5781258,-3.27083 -1.578125,-5.9375 -8e-7,-2.52083 0.8671858,-4.67707 2.6015625,-6.46875 1.73436984,-1.79165 3.8046803,-2.68749 6.2109375,-2.6875 0.9062395,10e-6 1.9218634,0.23439 3.046875,0.70312 1.4166526,0.58335 2.1249852,1.28648 2.125,2.10938 -1.48e-5,0.28126 -0.1041814,0.53126 -0.3125,0.75 -0.1041811,0.39584 -0.1849101,1.04688 -0.2421875,1.95312 -0.057306,0.90626 -0.09116,2.06772 -0.1015625,3.48438 -0.010431,1.29167 0.078111,2.3125 0.265625,3.0625 0.1041521,0.45833 0.4322768,1.375 0.984375,2.75 0.072901,0.1875 0.1926927,0.46354 0.359375,0.82812 l 0.09375,0.26563 c -1.6e-5,0.41666 -0.1458528,0.76041 -0.4375038,1.03125 -0.2916818,0.27083 -0.6302231,0.40625 -1.015625,0.40625 z m -3.25,-10.85938 c -1.11e-5,-0.4479 0.028635,-0.93488 0.085937,-1.46093 0.05728,-0.52603 0.1432178,-1.08593 0.2578125,-1.67969 -0.3854278,-0.19791 -0.7161566,-0.34374 -0.9921875,-0.4375 -0.2760519,-0.0937 -0.4974058,-0.14061 -0.6640625,-0.14063 -1.6145916,2e-5 -3.0078193,0.65887 -4.17968752,1.97657 -1.17187948,1.31771 -1.75781638,2.83594 -1.75781248,4.55468 -3.9e-6,1.70834 0.3020791,2.98959 0.90624998,3.84375 0.60416128,0.85417 1.51041037,1.28125 2.71875002,1.28125 0.9999915,0 1.848949,-0.18229 2.546875,-0.54687 0.3749896,-0.19792 0.9010307,-0.59375 1.578125,-1.1875 -0.3333446,-2.76041 -0.5000111,-4.82812 -0.5,-6.20313 z"
         style="text-align:center;line-height:112.00000048%;text-anchor:middle"
         id="path3823"
         inkscape:connector-curvature="0" />
      <path
         d="m 25.64106,640.25583 -0.359375,5.25 c -0.06252,2.08334 -0.276056,3.78646 -0.640625,5.10938 -0.468764,1.68749 -1.218763,2.93228 -2.25,3.73437 -1.250011,0.96874 -3.057301,1.45312 -5.421875,1.45313 -1.385422,-1e-5 -2.546879,-0.0938 -3.484375,-0.28125 -1.312502,-0.26043 -1.968751,-0.80209 -1.96875,-1.625 -10e-7,-0.92709 0.453124,-1.39063 1.359375,-1.39063 0.374997,0 0.999997,0.0911 1.875,0.27344 0.874995,0.18229 1.843744,0.26301 2.90625,0.24219 1.999991,-0.0313 3.380198,-1.00001 4.140625,-2.90625 0.499988,-1.27084 0.765613,-3.22396 0.796875,-5.85938 -0.562512,1.04167 -1.231782,1.82292 -2.007813,2.34375 -0.77605,0.52084 -1.66407,0.78125 -2.664062,0.78125 -1.885422,0 -3.419275,-0.64323 -4.601563,-1.92968 -1.182293,-1.28646 -1.773438,-2.95573 -1.773437,-5.00782 -10e-7,-2.81249 0.80729,-5.07811 2.421875,-6.79687 1.666662,-1.77082 3.937493,-2.65624 6.8125,-2.65625 0.968739,10e-6 1.781238,0.12501 2.4375,0.375 0.656237,0.25001 1.156236,0.62501 1.5,1.125 1.114568,0.0313 1.671859,0.65105 1.671875,1.85937 -1.6e-5,0.7396 -0.109391,1.72918 -0.328125,2.96875 -0.239599,1.43751 -0.380224,2.41668 -0.421875,2.9375 z m -5.015625,-6.76562 c -1.979175,10e-6 -3.510423,0.6823 -4.59375,2.04687 -0.968755,1.22918 -1.453129,2.79168 -1.453125,4.6875 -4e-6,1.51042 0.286454,2.64584 0.859375,3.40625 0.572911,0.76042 1.432285,1.14063 2.578125,1.14063 1.052075,0 2.072907,-0.59375 3.0625,-1.78125 0.895822,-1.09375 1.406238,-2.17708 1.53125,-3.25 0.218738,-1.12499 0.453112,-2.89062 0.703125,-5.29688 -0.416679,-0.3229 -0.84897,-0.56248 -1.296875,-0.71875 -0.447928,-0.15623 -0.911469,-0.23436 -1.390625,-0.23437 z"
         style="text-align:center;line-height:112.00000048%;text-anchor:middle"
         id="path3825"
         inkscape:connector-curvature="0" />
      <path
         d="m 32.76606,627.20896 c -0.500005,2e-5 -0.932296,-0.17707 -1.296875,-0.53125 -0.364587,-0.35415 -0.546878,-0.78123 -0.546875,-1.28125 -3e-6,-0.49998 0.182288,-0.92706 0.546875,-1.28125 0.364579,-0.35415 0.79687,-0.53123 1.296875,-0.53125 0.499994,2e-5 0.929681,0.1771 1.289062,0.53125 0.359369,0.35419 0.539056,0.78127 0.539063,1.28125 -7e-6,0.50002 -0.179694,0.9271 -0.539063,1.28125 -0.359381,0.35418 -0.789068,0.53127 -1.289062,0.53125 z m 0.703125,12.6875 c -6e-6,0.625 0.01822,1.5599 0.05469,2.80469 0.03645,1.24479 0.05468,2.17968 0.05469,2.80468 -6e-6,0.45834 -0.140631,0.83334 -0.421875,1.125 -0.281255,0.29167 -0.651047,0.4375 -1.109375,0.4375 -0.447921,0 -0.815108,-0.14583 -1.101563,-0.4375 -0.286461,-0.29166 -0.42969,-0.66666 -0.429687,-1.125 -3e-6,-0.625 -0.01823,-1.55989 -0.05469,-2.80468 -0.03646,-1.24479 -0.05469,-2.17969 -0.05469,-2.80469 -3e-6,-0.97916 0.05208,-2.20051 0.15625,-3.66406 0.104163,-1.46353 0.156247,-2.68489 0.15625,-3.66407 -3e-6,-0.46873 0.143226,-0.84894 0.429687,-1.14062 0.286455,-0.29165 0.653642,-0.43749 1.101563,-0.4375 0.447911,10e-6 0.815099,0.14585 1.101562,0.4375 0.286453,0.29168 0.429682,0.67189 0.429688,1.14062 -6e-6,0.97918 -0.05209,2.20054 -0.15625,3.66407 -0.104173,1.46355 -0.156256,2.6849 -0.15625,3.66406 z"
         style="text-align:center;line-height:112.00000048%;text-anchor:middle"
         id="path3827"
         inkscape:connector-curvature="0" />
      <path
         d="m 50.76606,648.09958 c -0.895847,0 -1.401055,-0.48958 -1.515625,-1.46875 l -0.4375,-3.42187 c -0.145846,-1.21875 -0.218762,-2.35937 -0.21875,-3.42188 -1.2e-5,-0.29166 0.01822,-0.78645 0.05469,-1.48437 0.03645,-0.69791 0.05468,-1.1927 0.05469,-1.48438 -1.2e-5,-2.24998 -0.416678,-3.37498 -1.25,-3.375 -1.166676,2e-5 -2.281259,0.69272 -3.34375,2.07813 -0.95834,1.26042 -1.708339,2.85417 -2.25,4.78125 -0.02084,0.40625 -0.06771,0.91667 -0.140625,1.53125 -0.06251,0.52084 -0.09376,1.02604 -0.09375,1.51562 -5e-6,0.31251 0.03124,0.78126 0.09375,1.40625 0.06249,0.625 0.09374,1.09375 0.09375,1.40625 -5e-6,0.46875 -0.143234,0.84896 -0.429688,1.14063 -0.286462,0.29166 -0.65365,0.4375 -1.101562,0.4375 -0.458337,0 -0.828128,-0.14584 -1.109375,-0.4375 -0.281252,-0.29167 -0.421877,-0.67188 -0.421875,-1.14063 -2e-6,-0.3125 -0.03386,-0.78125 -0.101563,-1.40625 -0.06771,-0.62499 -0.101564,-1.09374 -0.101562,-1.40625 -2e-6,-1.07291 0.07552,-2.55989 0.226562,-4.46093 0.15104,-1.90104 0.22656,-3.38801 0.226563,-4.46094 -3e-6,-0.33332 -0.01823,-0.82811 -0.05469,-1.48438 -0.03646,-0.65623 -0.05469,-1.15102 -0.05469,-1.48437 -2e-6,-0.4479 0.148435,-0.81509 0.445312,-1.10156 0.296872,-0.28645 0.664059,-0.42968 1.101563,-0.42969 0.958328,10e-6 1.48437,0.6771 1.578125,2.03125 l 0.04687,1.82812 c 1.749993,-2.33332 3.546866,-3.49998 5.390625,-3.5 1.666654,2e-5 2.828111,0.73439 3.484375,2.20313 0.447902,0.97918 0.692693,2.42709 0.734375,4.34375 l 0,1.57812 -0.01563,1.45313 c -1.5e-5,0.86459 0.111964,1.98177 0.335937,3.35156 0.223943,1.36979 0.335922,2.48177 0.335938,3.33594 -1.6e-5,0.45833 -0.148453,0.83073 -0.445313,1.11719 -0.29689,0.28645 -0.669285,0.42968 -1.117187,0.42968 z"
         style="text-align:center;line-height:112.00000048%;text-anchor:middle"
         id="path3829"
         inkscape:connector-curvature="0" />
      <path
         d="m 68.39106,640.25583 -0.359375,5.25 c -0.06251,2.08334 -0.276056,3.78646 -0.640625,5.10938 -0.468764,1.68749 -1.218763,2.93228 -2.25,3.73437 -1.250011,0.96874 -3.057301,1.45312 -5.421875,1.45313 -1.385422,-1e-5 -2.546879,-0.0938 -3.484375,-0.28125 -1.312502,-0.26043 -1.968751,-0.80209 -1.96875,-1.625 -1e-6,-0.92709 0.453124,-1.39063 1.359375,-1.39063 0.374997,0 0.999997,0.0911 1.875,0.27344 0.874995,0.18229 1.843744,0.26301 2.90625,0.24219 1.999991,-0.0313 3.380198,-1.00001 4.140625,-2.90625 0.499988,-1.27084 0.765613,-3.22396 0.796875,-5.85938 -0.562512,1.04167 -1.231782,1.82292 -2.007813,2.34375 -0.77605,0.52084 -1.66407,0.78125 -2.664062,0.78125 -1.885422,0 -3.419275,-0.64323 -4.601563,-1.92968 -1.182293,-1.28646 -1.773438,-2.95573 -1.773437,-5.00782 -1e-6,-2.81249 0.80729,-5.07811 2.421875,-6.79687 1.666662,-1.77082 3.937493,-2.65624 6.8125,-2.65625 0.968739,10e-6 1.781238,0.12501 2.4375,0.375 0.656237,0.25001 1.156236,0.62501 1.5,1.125 1.114568,0.0313 1.671859,0.65105 1.671875,1.85937 -1.6e-5,0.7396 -0.109391,1.72918 -0.328125,2.96875 -0.239599,1.43751 -0.380224,2.41668 -0.421875,2.9375 z m -5.015625,-6.76562 c -1.979175,10e-6 -3.510423,0.6823 -4.59375,2.04687 -0.968755,1.22918 -1.453129,2.79168 -1.453125,4.6875 -4e-6,1.51042 0.286454,2.64584 0.859375,3.40625 0.572911,0.76042 1.432285,1.14063 2.578125,1.14063 1.052075,0 2.072907,-0.59375 3.0625,-1.78125 0.895822,-1.09375 1.406238,-2.17708 1.53125,-3.25 0.218738,-1.12499 0.453112,-2.89062 0.703125,-5.29688 -0.416679,-0.3229 -0.84897,-0.56248 -1.296875,-0.71875 -0.447928,-0.15623 -0.911469,-0.23436 -1.390625,-0.23437 z"
         style="text-align:center;line-height:112.00000048%;text-anchor:middle"
         id="path3831"
         inkscape:connector-curvature="0" />
    </g>
  </g>
</svg>
